<svg xmlns="http://www.w3.org/2000/svg" viewBox="0 0 512 512"><g transform="rotate(5 256 512)"><g fill="#ffffff" stroke="#101114" stroke-width="11" stroke-linecap="round" stroke-linejoin="round"><ellipse cx="140" cy="318" rx="25" ry="50" transform="rotate(30 140 318)"/><ellipse cx="398" cy="210" rx="25" ry="54" transform="rotate(38 398 210)"/><ellipse cx="206" cy="418" rx="42" ry="21"/><ellipse cx="318" cy="420" rx="42" ry="21"/></g><path d="M150 410C128 350 140 250 176 182C192 150 214 132 246 130L300 128L346 172C380 240 394 340 370 410C310 434 206 434 150 410Z" fill="#ffffff"/><path d="M172 202L356 188L368 228L160 244Z" fill="#ffe14d"/><path d="M150 410C128 350 140 250 176 182C192 150 214 132 246 130L300 128L346 172C380 240 394 340 370 410C310 434 206 434 150 410Z" fill="none" stroke="#101114" stroke-width="11" stroke-linecap="round" stroke-linejoin="round"/><path d="M300 128L346 172L312 174Q300 172 300 160Z" fill="#ffffff" stroke="#101114" stroke-width="11" stroke-linecap="round" stroke-linejoin="round"/><g fill="#101114"><ellipse cx="238" cy="214" rx="9" ry="12"/><ellipse cx="298" cy="212" rx="9" ry="12"/></g><circle cx="235" cy="209" r="3" fill="#ffffff"/><circle cx="295" cy="207" r="3" fill="#ffffff"/><path d="M252 256q14 13 28 0" fill="none" stroke="#101114" stroke-width="11" stroke-linecap="round" stroke-linejoin="round"/></g><g fill="#101114"><rect x="436" y="118" width="24" height="10" rx="5" transform="rotate(-40 448 123)"/><rect x="452" y="162" width="20" height="10" rx="5" transform="rotate(10 462 167)"/></g></svg>
