<svg xmlns="http://www.w3.org/2000/svg" viewBox="0 0 512 512"><g data-slot="body"><rect x="136" y="150" width="240" height="240" rx="72" fill="#101114"/><rect x="154" y="168" width="204" height="204" rx="54" fill="#ffe14d"/></g><g data-slot="eyes"><ellipse cx="220" cy="238" rx="14" ry="18" fill="#101114"/><ellipse cx="292" cy="238" rx="14" ry="18" fill="#101114"/></g><g data-slot="mouth"><path d="M208 292A48 48 0 0 0 304 292L286 292A30 30 0 0 1 226 292Z" fill="#101114"/></g><g data-slot="arms"><rect x="140" y="292" width="59.4" height="16" rx="8" fill="#101114" transform="rotate(122.6 140 300)"/><rect x="144" y="296" width="51.4" height="8" rx="4" fill="#ffe14d" transform="rotate(122.6 140 300)"/><rect x="372" y="292" width="80" height="16" rx="8" fill="#101114"/><rect x="376" y="296" width="72" height="8" rx="4" fill="#ffe14d"/><circle cx="452" cy="300" r="13" fill="#101114"/><circle cx="452" cy="300" r="7" fill="#ffe14d"/></g></svg>
