<svg xmlns="http://www.w3.org/2000/svg" viewBox="0 0 512 512"><g transform="rotate(8 256 512)"><g data-slot="body"><path d="M150 410C128 350 140 250 176 182C192 150 214 132 246 130L300 128L346 172C380 240 394 340 370 410C310 434 206 434 150 410Z" fill="#101114"/><path d="M300 128L346 172L312 174Q300 172 300 160Z" fill="#4a4d55"/></g><g data-slot="feet"><g fill="#101114"><ellipse cx="190" cy="414" rx="40" ry="20" transform="rotate(-16 190 414)"/><ellipse cx="342" cy="424" rx="44" ry="21"/></g></g><g data-slot="visor"><path d="M178 198L384 184L368 230L162 244Z" fill="#ffe14d"/></g><g data-slot="eyes"><ellipse cx="243" cy="215" rx="11" ry="14" fill="#101114"/><circle cx="240" cy="211" r="3.2" fill="#ffffff"/><ellipse cx="303" cy="213" rx="11" ry="14" fill="#101114"/><circle cx="300" cy="209" r="3.2" fill="#ffffff"/></g><g data-slot="mouth"><path d="M250 256h32a16 14 0 0 1-32 0z" fill="#ffffff"/></g><g data-slot="arms"><g fill="#101114"><ellipse cx="140" cy="318" rx="25" ry="50" transform="rotate(30 140 318)"/><ellipse cx="410" cy="262" rx="22" ry="50" transform="rotate(84 410 262)"/></g></g></g></svg>
