<svg xmlns="http://www.w3.org/2000/svg" viewBox="0 0 512 512"><g data-slot="body"><rect x="136" y="150" width="240" height="240" rx="72" fill="#101114"/><rect x="154" y="168" width="204" height="204" rx="54" fill="#ffe14d"/></g><g data-slot="eyes"><ellipse cx="220" cy="238" rx="14" ry="18" fill="#101114"/><ellipse cx="292" cy="238" rx="14" ry="18" fill="#101114"/></g><g data-slot="brows"><rect x="204" y="200" width="32" height="9" rx="4.5" fill="#101114"/><rect x="276" y="200" width="32" height="9" rx="4.5" fill="#101114"/></g><g data-slot="mouth"><rect x="208" y="292" width="96" height="20" rx="10" fill="#101114"/></g><g data-slot="prop"><g transform="rotate(-8 436 163)"><rect x="380" y="118" width="112" height="90" rx="10" fill="#101114"/><rect x="386" y="124" width="100" height="78" rx="6" fill="#ffffff"/><rect x="398" y="140" width="76" height="8" rx="4" fill="#ffe14d"/><rect x="398" y="158" width="58" height="6" rx="3" fill="#9a9ea6"/><rect x="398" y="174" width="70" height="6" rx="3" fill="#9a9ea6"/></g></g><g data-slot="arms"><rect x="140" y="292" width="59.4" height="16" rx="8" fill="#101114" transform="rotate(122.6 140 300)"/><rect x="144" y="296" width="51.4" height="8" rx="4" fill="#ffe14d" transform="rotate(122.6 140 300)"/><rect x="372" y="272" width="84.9" height="16" rx="8" fill="#101114" transform="rotate(-55.6 372 280)"/><rect x="376" y="276" width="76.9" height="8" rx="4" fill="#ffe14d" transform="rotate(-55.6 372 280)"/><circle cx="420" cy="210" r="13" fill="#101114"/><circle cx="420" cy="210" r="7" fill="#ffe14d"/></g></svg>
